<svg width="1280" height="720" xmlns="http://www.w3.org/2000/svg" xmlns:xlink="http://www.w3.org/1999/xlink" overflow="hidden"><g><rect x="0" y="0" width="1280" height="720" fill="#FFFFFF"/><text font-family="Aptos Display,Aptos Display_MSFontService,sans-serif" font-weight="700" font-size="53" transform="translate(32.1714 59)">Solution Paths</text><text fill="#898989" font-family="Calibri,Calibri_MSFontService,sans-serif" font-weight="400" font-size="16" transform="translate(1165.93 692)">11</text><path d="M1257.5 156.834 1257.5 226.167C1257.5 235.74 1249.74 243.5 1240.17 243.5L471.5 243.5 471.5 139.5 1240.17 139.5C1249.74 139.5 1257.5 147.261 1257.5 156.834Z" stroke="#CFD5EA" stroke-width="1.33333" stroke-miterlimit="8" stroke-opacity="0.901961" fill="#CFD5EA" fill-rule="evenodd" fill-opacity="0.901961"/><text font-family="Aptos,Aptos_MSFontService,sans-serif" font-weight="400" font-size="25" transform="translate(478.357 182)">•</text><text font-family="Aptos,Aptos_MSFontService,sans-serif" font-weight="400" font-size="25" transform="translate(496.357 182)">Includes External Wall Insulation, Loft Insulation, Double Glazing</text><text font-family="Aptos,Aptos_MSFontService,sans-serif" font-weight="400" font-size="25" transform="translate(478.357 214)">•</text><text font-family="Aptos,Aptos_MSFontService,sans-serif" font-weight="400" font-size="25" transform="translate(496.357 214)">Demand analysed in LHEES</text><path d="M28.5001 148.167C28.5001 136.201 38.2007 126.5 50.167 126.5L449.833 126.5C461.799 126.5 471.5 136.201 471.5 148.167L471.5 234.833C471.5 246.799 461.799 256.5 449.833 256.5L50.167 256.5C38.2007 256.5 28.5001 246.799 28.5001 234.833Z" stroke="#FFFFFF" stroke-width="1.33333" stroke-miterlimit="8" fill="#4472C4" fill-rule="evenodd"/><text fill="#FFFFFF" font-family="Aptos,Aptos_MSFontService,sans-serif" font-weight="400" font-size="47" transform="translate(186.429 178)">Fabric</text><text fill="#FFFFFF" font-family="Aptos,Aptos_MSFontService,sans-serif" font-weight="400" font-size="47" transform="translate(103.822 230)">Improvements</text><path d="M1257.5 293.834 1257.5 363.167C1257.5 372.74 1249.74 380.5 1240.17 380.5L471.5 380.5 471.5 276.5 1240.17 276.5C1249.74 276.5 1257.5 284.261 1257.5 293.834Z" stroke="#CFD5EA" stroke-width="1.33333" stroke-miterlimit="8" stroke-opacity="0.901961" fill="#CFD5EA" fill-rule="evenodd" fill-opacity="0.901961"/><text font-family="Aptos,Aptos_MSFontService,sans-serif" font-weight="400" font-size="25" transform="translate(478.357 318)">•</text><text font-family="Aptos,Aptos_MSFontService,sans-serif" font-weight="400" font-size="25" transform="translate(496.357 318)">Shared Heating System</text><text font-family="Aptos,Aptos_MSFontService,sans-serif" font-weight="400" font-size="25" transform="translate(478.357 350)">•</text><text font-family="Aptos,Aptos_MSFontService,sans-serif" font-weight="400" font-size="25" transform="translate(496.357 350)">Many ways to implement, including recent 4</text><text font-family="Aptos,Aptos_MSFontService,sans-serif" font-weight="400" font-size="17" transform="translate(973.777 342)">th</text><text font-family="Aptos,Aptos_MSFontService,sans-serif" font-weight="400" font-size="25" transform="translate(993.69 350)">gen &amp; 5</text><text font-family="Aptos,Aptos_MSFontService,sans-serif" font-weight="400" font-size="17" transform="translate(1073.21 342)">th</text><text font-family="Aptos,Aptos_MSFontService,sans-serif" font-weight="400" font-size="25" transform="translate(1093.12 350)">gen networks</text><path d="M28.5001 285.167C28.5001 273.201 38.2007 263.5 50.167 263.5L449.833 263.5C461.799 263.5 471.5 273.201 471.5 285.167L471.5 371.833C471.5 383.799 461.799 393.5 449.833 393.5L50.167 393.5C38.2007 393.5 28.5001 383.799 28.5001 371.833Z" stroke="#FFFFFF" stroke-width="1.33333" stroke-miterlimit="8" fill="#4472C4" fill-rule="evenodd"/><text fill="#FFFFFF" font-family="Aptos,Aptos_MSFontService,sans-serif" font-weight="400" font-size="47" transform="translate(93.0022 340)">District Heating</text><path d="M1257.5 429.834 1257.5 499.167C1257.5 508.74 1249.74 516.5 1240.17 516.5L471.5 516.5 471.5 412.5 1240.17 412.5C1249.74 412.5 1257.5 420.261 1257.5 429.834Z" stroke="#CFD5EA" stroke-width="1.33333" stroke-miterlimit="8" stroke-opacity="0.901961" fill="#CFD5EA" fill-rule="evenodd" fill-opacity="0.901961"/><text font-family="Aptos,Aptos_MSFontService,sans-serif" font-weight="400" font-size="25" transform="translate(478.357 455)">•</text><text font-family="Aptos,Aptos_MSFontService,sans-serif" font-weight="400" font-size="25" transform="translate(496.357 455)">Transfers heat from one zone to another</text><text font-family="Aptos,Aptos_MSFontService,sans-serif" font-weight="400" font-size="25" transform="translate(478.357 487)">•</text><text font-family="Aptos,Aptos_MSFontService,sans-serif" font-weight="400" font-size="25" transform="translate(496.357 487)">More efficient than direct electrical heat generation</text><path d="M28.5001 421.167C28.5001 409.201 38.2007 399.5 50.167 399.5L449.833 399.5C461.799 399.5 471.5 409.201 471.5 421.167L471.5 507.833C471.5 519.799 461.799 529.5 449.833 529.5L50.167 529.5C38.2007 529.5 28.5001 519.799 28.5001 507.833Z" stroke="#FFFFFF" stroke-width="1.33333" stroke-miterlimit="8" fill="#4472C4" fill-rule="evenodd"/><text fill="#FFFFFF" font-family="Aptos,Aptos_MSFontService,sans-serif" font-weight="400" font-size="47" transform="translate(126.099 476)">Heat Pumps</text><path d="M28.5001 556.167C28.5001 544.201 38.2008 534.5 50.1673 534.5L1234.83 534.5C1246.8 534.5 1256.5 544.201 1256.5 556.167L1256.5 642.833C1256.5 654.799 1246.8 664.5 1234.83 664.5L50.1673 664.5C38.2008 664.5 28.5001 654.799 28.5001 642.833Z" stroke="#FFFFFF" stroke-width="1.33333" stroke-miterlimit="8" fill="#44546A" fill-rule="evenodd"/><text fill="#FFFFFF" font-family="Aptos,Aptos_MSFontService,sans-serif" font-weight="700" font-size="43" transform="translate(63.9006 587)">Pathway to net zero 2045 will involve the integration of these</text><text fill="#FFFFFF" font-family="Aptos,Aptos_MSFontService,sans-serif" font-weight="700" font-size="43" transform="translate(551.421 634)">solutions</text></g></svg>